<svg width="18" height="16" viewBox="0 0 18 16" fill="none" xmlns="http://www.w3.org/2000/svg">
<path d="M17.1094 8.89844L10.8594 15.1484C10.625 15.3828 10.3125 15.5 10 15.5C9.64844 15.5 9.33594 15.3828 9.10156 15.1484C8.59375 14.6797 8.59375 13.8594 9.10156 13.3906L13.2031 9.25H1.25C0.546875 9.25 0 8.70312 0 8C0 7.33594 0.546875 6.75 1.25 6.75H13.2031L9.10156 2.64844C8.59375 2.17969 8.59375 1.35938 9.10156 0.890625C9.57031 0.382812 10.3906 0.382812 10.8594 0.890625L17.1094 7.14062C17.6172 7.60938 17.6172 8.42969 17.1094 8.89844Z" fill="#F3ECDC"/>
</svg>
