<svg width="27" height="36" viewBox="0 0 27 36" fill="none" xmlns="http://www.w3.org/2000/svg">
<path d="M19.6875 25.416C18.7305 25.9629 17.2949 25.416 16.2012 25.6895C15.1758 25.9629 14.2188 27.125 13.125 27.125C11.9629 27.125 11.0059 25.9629 9.98047 25.6895C8.88672 25.416 7.45117 25.9629 6.49414 25.416C5.53711 24.8691 5.33203 23.3652 4.58008 22.5449C3.75977 21.793 2.25586 21.5195 1.70898 20.6309C1.16211 19.6738 1.70898 18.2383 1.43555 17.1445C1.16211 16.1191 0 15.1621 0 14C0 12.9062 1.16211 11.9492 1.43555 10.9238C1.70898 9.83008 1.16211 8.39453 1.70898 7.4375C2.25586 6.48047 3.75977 6.27539 4.58008 5.52344C5.33203 4.70312 5.60547 3.19922 6.49414 2.65234C7.45117 2.10547 8.88672 2.65234 9.98047 2.37891C11.0059 2.10547 11.9629 0.875 13.125 0.875C14.2188 0.875 15.1758 2.10547 16.1328 2.37891C17.2266 2.65234 18.6621 2.10547 19.6191 2.65234C20.5762 3.19922 20.7812 4.70312 21.6016 5.52344C22.3535 6.27539 23.8574 6.48047 24.4043 7.4375C24.9512 8.39453 24.4043 9.83008 24.6777 10.9238C24.9512 11.9492 26.1816 12.9062 26.1816 14C26.1816 15.1621 25.0195 16.1191 24.7461 17.1445C24.4727 18.2383 25.0195 19.6738 24.4727 20.6309C23.9258 21.5879 22.4219 21.793 21.6016 22.5449C20.8496 23.3652 20.5762 24.8691 19.6875 25.416ZM7.65625 14C7.65625 17.0762 10.0488 19.4688 13.125 19.4688C16.1328 19.4688 18.5938 17.0762 18.5938 14C18.5938 10.9922 16.1328 8.53125 13.125 8.53125C10.0488 8.53125 7.65625 10.9922 7.65625 14ZM0.0683594 30.543L2.32422 24.9375C4.78516 27.3301 8.06641 28.9707 11.7578 29.3125L9.43359 34.918C9.22852 35.4648 8.68164 35.875 7.99805 35.875C7.99805 35.875 7.99805 35.875 7.92969 35.875C7.31445 35.875 6.76758 35.5332 6.49414 34.9863L4.99023 32.1152L1.91406 32.7305C1.36719 32.8672 0.751953 32.6621 0.341797 32.1836C-0.0683594 31.7051 -0.136719 31.0898 0.0683594 30.543ZM23.8574 24.9375L26.1133 30.543C26.3184 31.0898 26.25 31.7051 25.8398 32.1836C25.4297 32.6621 24.8145 32.8672 24.2676 32.7305L21.1914 32.1152L19.6875 34.9863C19.4141 35.6016 18.8672 35.875 18.252 35.875C18.1836 35.875 18.1836 35.875 18.1836 35.9434C17.5 35.875 16.9531 35.4648 16.6797 34.918L14.4238 29.3125C18.1152 28.9707 21.3965 27.3301 23.8574 24.9375Z" fill="#A3B18A"/>
</svg>
