<svg width="50" height="47" viewBox="0 0 50 47" fill="none" xmlns="http://www.w3.org/2000/svg">
<path d="M37.4997 3.91675H12.4997C10.2018 3.91675 8.33301 5.67337 8.33301 7.83341V41.1251C8.33301 41.6445 8.5525 42.1426 8.9432 42.5098C9.3339 42.8771 9.86381 43.0834 10.4163 43.0834H39.583C40.1355 43.0834 40.6654 42.8771 41.0561 42.5098C41.4468 42.1426 41.6663 41.6445 41.6663 41.1251V7.83341C41.6663 5.67337 39.7976 3.91675 37.4997 3.91675ZM37.4997 39.1667H12.4997V7.83341H37.4997V39.1667Z" fill="#00AC4F"/>
<path d="M16.667 11.75H22.917V15.6667H16.667V11.75ZM27.0837 11.75H33.3337V15.6667H27.0837V11.75ZM16.667 19.5833H22.917V23.5H16.667V19.5833ZM27.0837 19.644H33.3337V23.5H27.0837V19.644ZM16.667 27.4167H22.917V31.3333H16.667V27.4167ZM27.0837 27.4167H33.3337V31.3333H27.0837V27.4167Z" fill="#00AC4F"/>
</svg>
