<svg width="31" height="36" viewBox="0 0 31 36" fill="none" xmlns="http://www.w3.org/2000/svg">
<path d="M10.9375 3.0625V5.25H19.6875V3.0625C19.6875 1.90039 20.6445 0.875 21.875 0.875C23.0371 0.875 24.0625 1.90039 24.0625 3.0625V5.25H27.3438C29.1211 5.25 30.625 6.75391 30.625 8.53125V11.8125H0V8.53125C0 6.75391 1.43555 5.25 3.28125 5.25H6.5625V3.0625C6.5625 1.90039 7.51953 0.875 8.75 0.875C9.91211 0.875 10.9375 1.90039 10.9375 3.0625ZM0 14H30.625V32.5938C30.625 34.4395 29.1211 35.875 27.3438 35.875H3.28125C1.43555 35.875 0 34.4395 0 32.5938V14ZM4.375 21.6562C4.375 22.2715 4.85352 22.75 5.46875 22.75H7.65625C8.20312 22.75 8.75 22.2715 8.75 21.6562V19.4688C8.75 18.9219 8.20312 18.375 7.65625 18.375H5.46875C4.85352 18.375 4.375 18.9219 4.375 19.4688V21.6562ZM13.125 21.6562C13.125 22.2715 13.6035 22.75 14.2188 22.75H16.4062C16.9531 22.75 17.5 22.2715 17.5 21.6562V19.4688C17.5 18.9219 16.9531 18.375 16.4062 18.375H14.2188C13.6035 18.375 13.125 18.9219 13.125 19.4688V21.6562ZM22.9688 18.375C22.3535 18.375 21.875 18.9219 21.875 19.4688V21.6562C21.875 22.2715 22.3535 22.75 22.9688 22.75H25.1562C25.7031 22.75 26.25 22.2715 26.25 21.6562V19.4688C26.25 18.9219 25.7031 18.375 25.1562 18.375H22.9688ZM4.375 30.4062C4.375 31.0215 4.85352 31.5 5.46875 31.5H7.65625C8.20312 31.5 8.75 31.0215 8.75 30.4062V28.2188C8.75 27.6719 8.20312 27.125 7.65625 27.125H5.46875C4.85352 27.125 4.375 27.6719 4.375 28.2188V30.4062ZM14.2188 27.125C13.6035 27.125 13.125 27.6719 13.125 28.2188V30.4062C13.125 31.0215 13.6035 31.5 14.2188 31.5H16.4062C16.9531 31.5 17.5 31.0215 17.5 30.4062V28.2188C17.5 27.6719 16.9531 27.125 16.4062 27.125H14.2188ZM21.875 30.4062C21.875 31.0215 22.3535 31.5 22.9688 31.5H25.1562C25.7031 31.5 26.25 31.0215 26.25 30.4062V28.2188C26.25 27.6719 25.7031 27.125 25.1562 27.125H22.9688C22.3535 27.125 21.875 27.6719 21.875 28.2188V30.4062Z" fill="#A3B18A"/>
</svg>
