<svg width="21" height="24" viewBox="0 0 21 24" fill="none" xmlns="http://www.w3.org/2000/svg">
<path d="M7.40927 1.73589V3.21774H13.3367V1.73589C13.3367 0.948651 13.985 0.254031 14.8185 0.254031C15.6058 0.254031 16.3004 0.948651 16.3004 1.73589V3.21774H18.5232C19.7272 3.21774 20.746 4.23652 20.746 5.44052V7.66331H0V5.44052C0 4.23652 0.972467 3.21774 2.22278 3.21774H4.44556V1.73589C4.44556 0.948651 5.09388 0.254031 5.92742 0.254031C6.71466 0.254031 7.40927 0.948651 7.40927 1.73589ZM0 9.14516H20.746V21.7409C20.746 22.9912 19.7272 23.9637 18.5232 23.9637H2.22278C0.972467 23.9637 0 22.9912 0 21.7409V9.14516ZM2.96371 14.3317C2.96371 14.7484 3.28787 15.0726 3.70464 15.0726H5.18649C5.55696 15.0726 5.92742 14.7484 5.92742 14.3317V12.8498C5.92742 12.4793 5.55696 12.1089 5.18649 12.1089H3.70464C3.28787 12.1089 2.96371 12.4793 2.96371 12.8498V14.3317ZM8.89113 14.3317C8.89113 14.7484 9.21529 15.0726 9.63206 15.0726H11.1139C11.4844 15.0726 11.8548 14.7484 11.8548 14.3317V12.8498C11.8548 12.4793 11.4844 12.1089 11.1139 12.1089H9.63206C9.21529 12.1089 8.89113 12.4793 8.89113 12.8498V14.3317ZM15.5595 12.1089C15.1427 12.1089 14.8185 12.4793 14.8185 12.8498V14.3317C14.8185 14.7484 15.1427 15.0726 15.5595 15.0726H17.0413C17.4118 15.0726 17.7823 14.7484 17.7823 14.3317V12.8498C17.7823 12.4793 17.4118 12.1089 17.0413 12.1089H15.5595ZM2.96371 20.2591C2.96371 20.6758 3.28787 21 3.70464 21H5.18649C5.55696 21 5.92742 20.6758 5.92742 20.2591V18.7772C5.92742 18.4068 5.55696 18.0363 5.18649 18.0363H3.70464C3.28787 18.0363 2.96371 18.4068 2.96371 18.7772V20.2591ZM9.63206 18.0363C9.21529 18.0363 8.89113 18.4068 8.89113 18.7772V20.2591C8.89113 20.6758 9.21529 21 9.63206 21H11.1139C11.4844 21 11.8548 20.6758 11.8548 20.2591V18.7772C11.8548 18.4068 11.4844 18.0363 11.1139 18.0363H9.63206ZM14.8185 20.2591C14.8185 20.6758 15.1427 21 15.5595 21H17.0413C17.4118 21 17.7823 20.6758 17.7823 20.2591V18.7772C17.7823 18.4068 17.4118 18.0363 17.0413 18.0363H15.5595C15.1427 18.0363 14.8185 18.4068 14.8185 18.7772V20.2591Z" fill="#A3B18A"/>
</svg>
