<svg width="42" height="45" viewBox="0 0 42 45" fill="none" xmlns="http://www.w3.org/2000/svg">
<path d="M27.5625 28.125C27.2144 28.125 26.8806 28.2732 26.6344 28.5369C26.3883 28.8006 26.25 29.1583 26.25 29.5312C26.25 29.9042 26.3883 30.2619 26.6344 30.5256C26.8806 30.7893 27.2144 30.9375 27.5625 30.9375H32.8125C33.1606 30.9375 33.4944 30.7893 33.7406 30.5256C33.9867 30.2619 34.125 29.9042 34.125 29.5312C34.125 29.1583 33.9867 28.8006 33.7406 28.5369C33.4944 28.2732 33.1606 28.125 32.8125 28.125H27.5625ZM2.625 15.4688C2.625 13.6039 3.3164 11.8155 4.54711 10.4969C5.77782 9.17829 7.44702 8.4375 9.1875 8.4375H32.8125C34.553 8.4375 36.2222 9.17829 37.4529 10.4969C38.6836 11.8155 39.375 13.6039 39.375 15.4688V29.5312C39.375 31.3961 38.6836 33.1845 37.4529 34.5031C36.2222 35.8217 34.553 36.5625 32.8125 36.5625H9.1875C7.44702 36.5625 5.77782 35.8217 4.54711 34.5031C3.3164 33.1845 2.625 31.3961 2.625 29.5312V15.4688ZM36.75 16.875V15.4688C36.75 14.3499 36.3352 13.2768 35.5967 12.4856C34.8583 11.6945 33.8568 11.25 32.8125 11.25H9.1875C8.14321 11.25 7.14169 11.6945 6.40327 12.4856C5.66484 13.2768 5.25 14.3499 5.25 15.4688V16.875H36.75ZM5.25 19.6875V29.5312C5.25 30.6501 5.66484 31.7232 6.40327 32.5144C7.14169 33.3055 8.14321 33.75 9.1875 33.75H32.8125C33.8568 33.75 34.8583 33.3055 35.5967 32.5144C36.3352 31.7232 36.75 30.6501 36.75 29.5312V19.6875H5.25Z" fill="#00AC4F"/>
</svg>
