<svg width="44" height="42" viewBox="0 0 44 42" fill="none" xmlns="http://www.w3.org/2000/svg">
<path d="M16.7937 19.023C16.6104 19.0055 16.3904 19.0055 16.1887 19.023C11.8254 18.883 8.36035 15.4705 8.36035 11.2705C8.36035 6.98299 11.9904 3.50049 16.5004 3.50049C20.992 3.50049 24.6403 6.98299 24.6403 11.2705C24.622 15.4705 21.157 18.883 16.7937 19.023Z" stroke="#00AC4F" stroke-width="2.625" stroke-linecap="round" stroke-linejoin="round"/>
<path d="M30.084 7C33.6407 7 36.5007 9.7475 36.5007 13.125C36.5007 16.4325 33.7507 19.1275 30.3224 19.25C30.1757 19.2325 30.0107 19.2325 29.8457 19.25" stroke="#00AC4F" stroke-width="2.625" stroke-linecap="round" stroke-linejoin="round"/>
<path d="M7.6273 25.4795C3.19064 28.3145 3.19064 32.9345 7.6273 35.752C12.669 38.972 20.9373 38.972 25.979 35.752C30.4156 32.917 30.4156 28.297 25.979 25.4795C20.9556 22.277 12.6873 22.277 7.6273 25.4795Z" stroke="#00AC4F" stroke-width="2.625" stroke-linecap="round" stroke-linejoin="round"/>
<path d="M33.623 35C34.943 34.7375 36.1897 34.23 37.2164 33.4775C40.0764 31.43 40.0764 28.0525 37.2164 26.005C36.208 25.27 34.9797 24.78 33.678 24.5" stroke="#00AC4F" stroke-width="2.625" stroke-linecap="round" stroke-linejoin="round"/>
</svg>
