<svg width="19" height="19" viewBox="0 0 19 19" fill="none" xmlns="http://www.w3.org/2000/svg">
<path d="M7.43277 8.08512L7.60419 7.55262L7.43277 8.08512ZM9.34952 0.870119C9.23387 0.869799 9.12139 0.906452 9.02972 0.974324C8.93806 1.0422 8.8724 1.13744 8.84306 1.24512L6.87956 7.33512H0.537144C0.422305 7.34185 0.312287 7.38195 0.221613 7.45011C0.13094 7.51828 0.0638737 7.61131 0.0292685 7.71693C-0.00533675 7.82255 -0.00585395 7.93578 0.0277851 8.04169C0.0614242 8.14759 0.127638 8.24119 0.217685 8.31012L5.35239 12.0601L3.39669 18.1576C3.36723 18.2363 3.35747 18.3206 3.36819 18.4037C3.3789 18.4867 3.4098 18.5662 3.45837 18.6356C3.50694 18.705 3.57181 18.7624 3.64774 18.8031C3.72366 18.8439 3.80849 18.8668 3.89535 18.8701C4.00872 18.8708 4.11884 18.8337 4.20702 18.7651L9.34173 15.0151L14.4764 18.7651C14.5687 18.8371 14.685 18.8744 14.8037 18.8701C14.8912 18.868 14.977 18.8458 15.0539 18.8056C15.1308 18.7653 15.1967 18.708 15.2461 18.6385C15.2956 18.5689 15.3272 18.4891 15.3383 18.4055C15.3494 18.3219 15.3398 18.2369 15.3101 18.1576L13.3544 12.0751L18.4891 8.32512C18.5792 8.25619 18.6454 8.16259 18.679 8.05669C18.7127 7.95078 18.7122 7.83755 18.6776 7.73193C18.643 7.62631 18.5759 7.53328 18.4852 7.46511C18.3945 7.39695 18.2845 7.35685 18.1697 7.35012H11.8195L9.85598 1.24512C9.82663 1.13744 9.76098 1.0422 9.66931 0.974324C9.57765 0.906452 9.46517 0.869799 9.34952 0.870119Z" fill="#588157"/>
</svg>
